<mxfile host="app.diagrams.net" modified="2023-10-11T01:14:20.971Z" agent="Mozilla/5.0 (Windows NT 10.0; Win64; x64) AppleWebKit/537.36 (KHTML, like Gecko) Chrome/117.0.0.0 Safari/537.36" etag="NZmSo7t5Kc9DFCdLaOKK" version="22.0.4" type="google">
  <diagram name="Page-1" id="pbw5kBtLpTVjRUCojssV">
    <mxGraphModel grid="1" page="1" gridSize="10" guides="1" tooltips="1" connect="1" arrows="1" fold="1" pageScale="1" pageWidth="850" pageHeight="1100" math="0" shadow="0">
      <root>
        <mxCell id="0" />
        <mxCell id="1" parent="0" />
        <mxCell id="CpzrTYUdZMxCY4Qtmrvs-1" value="" style="whiteSpace=wrap;html=1;aspect=fixed;" vertex="1" parent="1">
          <mxGeometry x="340" y="115" width="470" height="470" as="geometry" />
        </mxCell>
        <mxCell id="CpzrTYUdZMxCY4Qtmrvs-2" value="App" style="text;html=1;strokeColor=none;fillColor=none;align=center;verticalAlign=middle;whiteSpace=wrap;rounded=0;" vertex="1" parent="1">
          <mxGeometry x="750" y="555" width="60" height="30" as="geometry" />
        </mxCell>
        <mxCell id="CpzrTYUdZMxCY4Qtmrvs-23" style="edgeStyle=orthogonalEdgeStyle;rounded=0;orthogonalLoop=1;jettySize=auto;html=1;exitX=1;exitY=0.5;exitDx=0;exitDy=0;entryX=0;entryY=0.5;entryDx=0;entryDy=0;" edge="1" parent="1" source="CpzrTYUdZMxCY4Qtmrvs-3" target="CpzrTYUdZMxCY4Qtmrvs-11">
          <mxGeometry relative="1" as="geometry">
            <Array as="points">
              <mxPoint x="250" y="375" />
              <mxPoint x="250" y="350" />
            </Array>
          </mxGeometry>
        </mxCell>
        <mxCell id="CpzrTYUdZMxCY4Qtmrvs-24" style="edgeStyle=orthogonalEdgeStyle;rounded=0;orthogonalLoop=1;jettySize=auto;html=1;exitX=1;exitY=0.75;exitDx=0;exitDy=0;entryX=0;entryY=0.5;entryDx=0;entryDy=0;" edge="1" parent="1" source="CpzrTYUdZMxCY4Qtmrvs-3" target="CpzrTYUdZMxCY4Qtmrvs-12">
          <mxGeometry relative="1" as="geometry" />
        </mxCell>
        <mxCell id="CpzrTYUdZMxCY4Qtmrvs-35" style="edgeStyle=orthogonalEdgeStyle;rounded=0;orthogonalLoop=1;jettySize=auto;html=1;exitX=1;exitY=0.25;exitDx=0;exitDy=0;entryX=0;entryY=0.5;entryDx=0;entryDy=0;" edge="1" parent="1" source="CpzrTYUdZMxCY4Qtmrvs-3" target="CpzrTYUdZMxCY4Qtmrvs-10">
          <mxGeometry relative="1" as="geometry">
            <Array as="points">
              <mxPoint x="200" y="348" />
              <mxPoint x="200" y="290" />
              <mxPoint x="400" y="290" />
              <mxPoint x="400" y="260" />
              <mxPoint x="600" y="260" />
              <mxPoint x="600" y="220" />
            </Array>
          </mxGeometry>
        </mxCell>
        <mxCell id="CpzrTYUdZMxCY4Qtmrvs-3" value="Primary Actor: Shopper" style="rounded=0;whiteSpace=wrap;html=1;" vertex="1" parent="1">
          <mxGeometry x="20" y="320" width="140" height="110" as="geometry" />
        </mxCell>
        <mxCell id="CpzrTYUdZMxCY4Qtmrvs-5" value="" style="ellipse;whiteSpace=wrap;html=1;" vertex="1" parent="1">
          <mxGeometry x="350" y="150" width="170" height="80" as="geometry" />
        </mxCell>
        <mxCell id="CpzrTYUdZMxCY4Qtmrvs-6" value="Registered Active Account" style="text;html=1;strokeColor=none;fillColor=none;align=center;verticalAlign=middle;whiteSpace=wrap;rounded=0;" vertex="1" parent="1">
          <mxGeometry x="405" y="170" width="60" height="30" as="geometry" />
        </mxCell>
        <mxCell id="CpzrTYUdZMxCY4Qtmrvs-27" style="edgeStyle=orthogonalEdgeStyle;rounded=0;orthogonalLoop=1;jettySize=auto;html=1;exitX=0.5;exitY=0;exitDx=0;exitDy=0;entryX=1;entryY=0.5;entryDx=0;entryDy=0;" edge="1" parent="1" source="CpzrTYUdZMxCY4Qtmrvs-10" target="CpzrTYUdZMxCY4Qtmrvs-5">
          <mxGeometry relative="1" as="geometry" />
        </mxCell>
        <mxCell id="CpzrTYUdZMxCY4Qtmrvs-31" style="edgeStyle=orthogonalEdgeStyle;rounded=0;orthogonalLoop=1;jettySize=auto;html=1;exitX=0.5;exitY=1;exitDx=0;exitDy=0;entryX=0.5;entryY=0;entryDx=0;entryDy=0;" edge="1" parent="1" source="CpzrTYUdZMxCY4Qtmrvs-10" target="CpzrTYUdZMxCY4Qtmrvs-11">
          <mxGeometry relative="1" as="geometry" />
        </mxCell>
        <mxCell id="CpzrTYUdZMxCY4Qtmrvs-10" value="Custom Route Mapping" style="ellipse;whiteSpace=wrap;html=1;" vertex="1" parent="1">
          <mxGeometry x="640" y="180" width="120" height="80" as="geometry" />
        </mxCell>
        <mxCell id="CpzrTYUdZMxCY4Qtmrvs-28" style="edgeStyle=orthogonalEdgeStyle;rounded=0;orthogonalLoop=1;jettySize=auto;html=1;exitX=0;exitY=0;exitDx=0;exitDy=0;entryX=1;entryY=1;entryDx=0;entryDy=0;" edge="1" parent="1" source="CpzrTYUdZMxCY4Qtmrvs-11" target="CpzrTYUdZMxCY4Qtmrvs-5">
          <mxGeometry relative="1" as="geometry" />
        </mxCell>
        <mxCell id="CpzrTYUdZMxCY4Qtmrvs-11" value="Store Locator" style="ellipse;whiteSpace=wrap;html=1;" vertex="1" parent="1">
          <mxGeometry x="640" y="310" width="120" height="80" as="geometry" />
        </mxCell>
        <mxCell id="CpzrTYUdZMxCY4Qtmrvs-29" style="edgeStyle=orthogonalEdgeStyle;rounded=0;orthogonalLoop=1;jettySize=auto;html=1;exitX=0;exitY=0;exitDx=0;exitDy=0;" edge="1" parent="1" source="CpzrTYUdZMxCY4Qtmrvs-12" target="CpzrTYUdZMxCY4Qtmrvs-5">
          <mxGeometry relative="1" as="geometry" />
        </mxCell>
        <mxCell id="CpzrTYUdZMxCY4Qtmrvs-32" style="edgeStyle=orthogonalEdgeStyle;rounded=0;orthogonalLoop=1;jettySize=auto;html=1;exitX=0.5;exitY=0;exitDx=0;exitDy=0;" edge="1" parent="1" source="CpzrTYUdZMxCY4Qtmrvs-12" target="CpzrTYUdZMxCY4Qtmrvs-11">
          <mxGeometry relative="1" as="geometry" />
        </mxCell>
        <mxCell id="CpzrTYUdZMxCY4Qtmrvs-12" value="Cheapest Store" style="ellipse;whiteSpace=wrap;html=1;" vertex="1" parent="1">
          <mxGeometry x="640" y="440" width="120" height="80" as="geometry" />
        </mxCell>
        <mxCell id="CpzrTYUdZMxCY4Qtmrvs-13" value="Include&amp;lt;&amp;lt;&amp;gt;&amp;gt;" style="text;html=1;strokeColor=none;fillColor=none;align=center;verticalAlign=middle;whiteSpace=wrap;rounded=0;" vertex="1" parent="1">
          <mxGeometry x="730" y="410" width="60" height="30" as="geometry" />
        </mxCell>
        <mxCell id="CpzrTYUdZMxCY4Qtmrvs-14" value="Include&amp;lt;&amp;lt;&amp;gt;&amp;gt;" style="text;html=1;strokeColor=none;fillColor=none;align=center;verticalAlign=middle;whiteSpace=wrap;rounded=0;" vertex="1" parent="1">
          <mxGeometry x="730" y="280" width="60" height="30" as="geometry" />
        </mxCell>
        <mxCell id="CpzrTYUdZMxCY4Qtmrvs-15" value="Include&amp;lt;&amp;lt;&amp;gt;&amp;gt;" style="text;html=1;strokeColor=none;fillColor=none;align=center;verticalAlign=middle;whiteSpace=wrap;rounded=0;" vertex="1" parent="1">
          <mxGeometry x="730" y="160" width="60" height="30" as="geometry" />
        </mxCell>
        <mxCell id="CpzrTYUdZMxCY4Qtmrvs-16" style="edgeStyle=orthogonalEdgeStyle;rounded=0;orthogonalLoop=1;jettySize=auto;html=1;exitX=0.5;exitY=1;exitDx=0;exitDy=0;" edge="1" parent="1" source="CpzrTYUdZMxCY4Qtmrvs-14" target="CpzrTYUdZMxCY4Qtmrvs-14">
          <mxGeometry relative="1" as="geometry" />
        </mxCell>
      </root>
    </mxGraphModel>
  </diagram>
</mxfile>
